# xmcd CD database file
#
# Track frame offsets:
#	150
#	5850
#	11178
#	27121
#	41488
#	56981
#	59488
#	76810
#	96730
#	104395
#	118180
#	139409
#	154120
#	173187
#	191806
#	204407
#	210691
#	227022
#	246968
#	269650
#	285697
#	305307
#
# Disc length: 4100 seconds
#
# Revision: 1
# Processed by: cddbd v1.5.2PL0 Copyright (c) Steve Scherf et al.
# Submitted via: CDex 1.70beta2
#
DISCID=4f100216
DTITLE=都倉俊一、他 - 日曜夜のテレビは哀愁
DYEAR=1900
DGENRE=TV番組テーマ曲
TTITLE0=笑点のテーマ
TTITLE1=ハッピーじゃないか
TTITLE2=メッセージ
TTITLE3=おどるポンポコリン
TTITLE4=サザエさん一家
TTITLE5=アップダウンクイズ
TTITLE6=ＤＥＡＤ　ＯＲ　ＡＬＩＶＥ
TTITLE7=はじめてのチュウ
TTITLE8=ムーミンのうた
TTITLE9=水もれ甲介
TTITLE10=ＴＡＫＵＭＩ／匠
TTITLE11=西部警察メイン・テーマ
TTITLE12=男達のメロディー
TTITLE13=恋のマジックポーション
TTITLE14=野に咲く花のように
TTITLE15=すばらしき仲間
TTITLE16=過ぎ去りし永遠の日々
TTITLE17=風たちとの出逢い
TTITLE18=情熱大陸
TTITLE19=ラブ・マシーン
TTITLE20=ＴＲＵＴＨ
TTITLE21=ごみ
EXTD=
EXTT0=
EXTT1=
EXTT2=
EXTT3=
EXTT4=
EXTT5=
EXTT6=
EXTT7=
EXTT8=
EXTT9=
EXTT10=
EXTT11=
EXTT12=
EXTT13=
EXTT14=
EXTT15=
EXTT16=
EXTT17=
EXTT18=
EXTT19=
EXTT20=
EXTT21=
PLAYORDER=
